PathFileType	4	(X/Y/Z)	FAIDC1_INITIAL_WALK01.trc	
DataRate	CameraRate	NumFrames	NumMarkers	Units	OrigDataRate	OrigDataStartFrame	OrigNumFrames
100	100	7	49	mm	100	342	113
Frame#	Time	RSH			LSH			C7			LELB			LWR			RELB			RWR			RASI			LASI			SACR			P1			P2			P3			LTHLP			LTHLD			LTHAP			LTHAD			LLEPI			LPAT			LMEPI			LTIAP			LTIAD			LTILAT			LLMAL			LMMAL			LHEEL			LMFS			LMFL			LP5MT			LP1MT			LTOE			RTHLP			RTHLD			RTHAP			RTHAD			RLEPI			RPAT			RMEPI			RTIAP			RTIAD			RTILAT			RLMAL			RMMAL			RHEEL			RMFS			RMFL			RP5MT			RP1MT			RTOE			
		X1	Y1	Z1	X2	Y2	Z2	X3	Y3	Z3	X4	Y4	Z4	X5	Y5	Z5	X6	Y6	Z6	X7	Y7	Z7	X8	Y8	Z8	X9	Y9	Z9	X10	Y10	Z10	X11	Y11	Z11	X12	Y12	Z12	X13	Y13	Z13	X14	Y14	Z14	X15	Y15	Z15	X16	Y16	Z16	X17	Y17	Z17	X18	Y18	Z18	X19	Y19	Z19	X20	Y20	Z20	X21	Y21	Z21	X22	Y22	Z22	X23	Y23	Z23	X24	Y24	Z24	X25	Y25	Z25	X26	Y26	Z26	X27	Y27	Z27	X28	Y28	Z28	X29	Y29	Z29	X30	Y30	Z30	X31	Y31	Z31	X32	Y32	Z32	X33	Y33	Z33	X34	Y34	Z34	X35	Y35	Z35	X36	Y36	Z36	X37	Y37	Z37	X38	Y38	Z38	X39	Y39	Z39	X40	Y40	Z40	X41	Y41	Z41	X42	Y42	Z42	X43	Y43	Z43	X44	Y44	Z44	X45	Y45	Z45	X46	Y46	Z46	X47	Y47	Z47	X48	Y48	Z48	X49	Y49	Z49	

99	0.98000	1391.22046	1513.15967	214.68997	1378.91138	1521.33752	-135.15414	1305.50745	1549.28857	54.75720	1262.05811	1193.43921	-257.22318	1292.85620	943.29041	-289.31793	1391.96973	1178.52710	339.61139	1590.82141	1024.32446	294.43985	1396.89478	1037.51062	181.07593	1406.88208	1037.45789	-93.48849	1229.39856	1113.35059	34.77429	1224.78247	1091.17212	-15.27872	1222.95935	1093.15466	87.50046	1205.57532	1027.97339	38.26581	1445.44946	776.28564	-157.01526	1493.83862	685.36121	-143.89328	1528.77600	819.27924	-85.81961	1570.53296	727.84845	-84.70557	1528.55469	559.49866	-126.03900	1616.08069	578.65833	-78.32321	1548.28711	564.20490	-5.14195	1569.72046	419.65579	-57.34955	1549.47559	292.06689	-49.58514	1502.90381	360.25464	-129.60495	1487.77905	134.63043	-91.36142	1527.26379	159.39259	-6.21393	1424.41455	123.12580	-42.64975	1587.98682	125.61238	-37.40823	1545.60474	97.39144	-101.90115	1606.65979	68.99649	-121.33090	1653.92688	73.14744	-12.61285	1700.94531	80.21712	-49.90158	1314.10315	746.99976	207.52570	1285.36902	635.23206	184.16696	1405.42505	736.53064	146.90398	1373.06445	631.34308	123.08203	1253.94202	528.56104	167.50604	1336.43555	522.41815	107.39114	1256.68262	533.49646	38.85968	1274.34033	394.44281	85.48808	1231.55090	252.26328	68.08788	1182.21948	337.50775	163.55009	1147.88782	105.53735	102.09383	1178.45105	126.63459	13.50467	1083.48804	102.61357	57.42767	1251.84082	97.13971	59.59851	1217.89380	70.65971	112.61974	1272.27271	47.34308	125.34270	1319.74670	57.29060	25.86407	1365.82471	44.27184	47.92302	
100	0.99000	1404.19983	1511.33411	214.20743	1391.47876	1519.66235	-135.54785	1318.38452	1547.52234	54.46611	1271.85986	1193.13354	-258.19864	1301.59790	942.89960	-290.86298	1406.40918	1177.27026	339.93359	1607.92017	1027.27759	292.95685	1409.43835	1035.87085	180.54494	1419.78406	1035.31372	-93.85757	1241.83813	1111.76282	34.04048	1237.63879	1089.48010	-15.91501	1235.56592	1091.60034	86.80446	1218.17578	1026.42932	37.65814	1456.18286	773.15222	-156.80341	1503.32593	681.63177	-142.79010	1539.99646	815.98358	-86.13272	1581.34131	724.33002	-84.83218	1538.64600	555.12042	-125.65100	1625.29517	576.31451	-77.64731	1558.37573	560.67523	-4.48375	1588.59790	417.92310	-57.35312	1577.47607	289.30243	-49.98520	1525.36292	354.10291	-129.29611	1526.45337	127.50479	-91.73962	1564.64063	155.17316	-6.78625	1464.19556	112.58759	-43.05743	1627.66101	125.55627	-38.39740	1586.79980	93.93846	-102.20444	1649.28967	69.15740	-121.95743	1696.81982	77.40080	-13.51306	1743.03418	87.10747	-51.42606	1322.66211	746.06396	207.60938	1291.86450	634.75867	184.77820	1413.74561	734.06598	146.67096	1379.42798	629.31592	123.06342	1258.20996	528.62439	167.98293	1340.30713	521.16040	107.42606	1260.50867	533.76202	39.25427	1277.08789	394.33759	85.97267	1233.21863	252.44882	68.49376	1184.48804	338.24567	164.07358	1148.27795	106.36128	102.25998	1178.97729	127.36488	13.76208	1083.91736	103.89561	57.74815	1251.98169	97.24078	59.83118	1218.05945	70.90334	112.83685	1272.37146	47.16985	125.30248	1319.78821	57.21815	25.92198	1365.76685	44.07330	47.77016	
101	1.00000	1417.17822	1509.43335	213.67696	1404.08398	1517.94202	-135.98505	1331.28857	1545.62659	54.09480	1281.95081	1192.59314	-259.10986	1310.67554	942.23315	-292.19891	1420.76782	1175.84937	340.17606	1624.59021	1029.66602	291.59381	1422.08313	1034.04932	180.04034	1432.85498	1033.17017	-94.28653	1254.94312	1109.92920	33.32841	1250.60864	1087.59509	-16.62192	1248.28259	1089.90906	86.08899	1230.99304	1024.63538	36.95041	1466.13135	769.23962	-156.53149	1511.89709	677.15466	-142.03235	1550.87036	811.69043	-86.63675	1591.55518	719.67676	-85.21906	1548.28040	550.08588	-125.11703	1633.85742	572.93976	-76.87997	1567.43286	555.87085	-4.04364	1606.75586	416.33640	-57.24689	1604.63586	287.27747	-50.43719	1547.82202	348.79852	-129.50211	1564.47632	122.61038	-92.68250	1601.18787	152.61143	-7.37932	1503.56458	103.85885	-43.57745	1666.10608	126.73815	-39.12976	1627.15430	92.61324	-102.91440	1690.98315	71.39828	-122.50061	1738.27539	83.29488	-14.05383	1783.50085	95.42119	-52.34409	1331.44897	745.17365	207.80289	1298.53284	634.40570	185.27924	1422.05762	731.64771	146.33546	1385.96570	627.51373	123.02518	1262.91162	528.60870	168.42957	1344.55884	519.73749	107.57071	1264.72852	533.89044	39.61038	1280.20227	394.19629	86.47052	1235.11682	252.72215	68.92496	1186.90015	338.99353	164.53638	1148.64441	107.27058	102.49669	1179.52429	128.08157	14.10507	1084.38794	105.32334	58.17142	1252.24707	97.47289	60.11710	1218.19897	71.20735	113.07718	1272.38513	47.09455	125.38667	1319.78503	57.15422	25.99141	1365.77563	43.92351	47.69769	
102	1.01000	1430.14368	1507.45337	213.06680	1416.71680	1516.15479	-136.51678	1344.21582	1543.62085	53.71909	1292.37244	1191.90222	-259.97308	1320.10083	941.41309	-293.62939	1435.07141	1174.32483	340.24191	1640.82495	1031.55627	290.34015	1434.37134	1032.07837	179.85283	1446.19446	1030.91003	-94.77698	1267.69604	1108.05188	32.45541	1263.68140	1085.61841	-17.44287	1261.11768	1088.10974	85.30547	1243.94641	1022.74078	36.21558	1475.30859	764.49597	-156.37723	1519.75037	671.76935	-141.67279	1561.47412	806.51825	-87.31918	1601.07129	713.92969	-85.93857	1557.96045	544.54285	-124.50696	1642.15479	568.74530	-75.99890	1576.44995	550.82892	-3.42041	1624.19458	414.84250	-57.10214	1630.85132	286.14691	-50.57486	1569.92444	343.92850	-129.45303	1601.64966	119.26324	-93.16846	1636.22827	151.37167	-7.85010	1541.92065	96.88286	-44.36740	1702.77051	129.46133	-39.43784	1666.30774	93.09016	-103.31723	1731.36365	75.67913	-122.70789	1777.53491	90.56065	-14.14474	1821.95276	105.45744	-52.46979	1340.48291	744.09265	208.01471	1305.55481	633.65552	185.80809	1430.38550	729.34009	145.95491	1392.57373	625.80878	122.94384	1268.19678	528.53168	168.81348	1349.41443	518.34387	107.75209	1269.51807	533.98792	40.00093	1283.80188	393.98251	86.93930	1237.26843	252.99371	69.38464	1189.64453	339.91873	164.90964	1149.13965	108.36478	102.79140	1180.11279	129.02071	14.43344	1084.98389	106.91492	58.67194	1252.54846	97.74083	60.44063	1218.36475	71.58975	113.32454	1272.39771	47.03212	125.48974	1319.78870	57.10682	26.07779	1365.80176	43.79963	47.62387	
103	1.02000	1443.15588	1505.37427	212.41536	1429.43298	1514.24207	-137.08475	1357.20361	1541.51599	53.17464	1303.18188	1190.94458	-260.74701	1329.91675	940.38495	-294.98309	1449.31812	1172.69897	340.21622	1656.75098	1032.91528	289.11588	1447.01685	1029.99768	179.41464	1459.75635	1028.69641	-95.28244	1281.01563	1105.94995	31.58249	1277.05933	1083.45190	-18.32111	1274.06030	1086.09058	84.34514	1257.16113	1020.64606	35.36407	1484.15356	759.31860	-155.96182	1526.96094	665.72498	-141.80035	1571.82715	800.36511	-88.30606	1609.85034	707.17993	-86.70700	1567.89783	538.95148	-123.78662	1650.60339	564.13959	-74.80264	1585.42224	545.69269	-2.25690	1641.18311	413.64429	-56.61578	1655.73657	285.84604	-50.41016	1591.48633	339.92996	-129.27884	1637.23486	117.74257	-93.73782	1669.29297	151.44888	-8.12125	1578.84766	91.52695	-45.53125	1737.29602	133.79950	-39.35745	1703.58838	95.26756	-103.46014	1769.73413	82.27356	-122.78336	1814.26587	99.63072	-13.72424	1857.91699	117.07597	-51.88379	1349.87280	743.06378	208.36356	1313.41431	632.94971	186.55589	1438.93481	727.17743	145.52628	1399.69336	624.13379	122.82812	1274.21362	528.39642	169.16190	1354.99390	516.97137	107.91135	1275.04053	534.02301	40.29010	1287.87866	393.63025	87.33734	1239.64526	253.18919	69.77644	1193.12085	340.78125	165.47379	1149.70093	109.49046	102.98630	1180.86145	129.96402	14.80275	1085.60474	108.81534	59.21945	1253.08240	98.11526	60.81213	1218.62976	72.04752	113.61838	1272.44629	46.97161	125.58869	1319.83203	57.05451	26.16470	1365.84839	43.63507	47.52136	
104	1.03000	1456.15747	1503.22302	211.69609	1442.24646	1512.22888	-137.76492	1370.21045	1539.30835	52.55765	1314.31641	1189.69739	-261.48520	1340.11462	939.04767	-296.32507	1463.43298	1170.97839	340.09198	1672.28381	1033.63904	287.98618	1459.74353	1027.91272	178.93109	1473.61816	1026.37415	-95.72034	1294.45288	1103.63550	30.47681	1290.59961	1081.14795	-19.36484	1287.13159	1083.99841	83.31873	1270.53162	1018.39508	34.34081	1492.61548	753.72571	-155.52328	1533.87219	659.10010	-142.45700	1581.88074	793.40918	-89.45209	1617.97375	699.75562	-87.33984	1578.20984	533.62360	-122.94797	1659.39063	559.63281	-73.02487	1593.93140	540.35748	-1.16344	1657.36133	412.75055	-55.63760	1679.39453	286.29620	-49.86685	1612.40222	336.86630	-129.00104	1670.63367	117.54585	-94.26569	1699.97559	152.73051	-8.06128	1613.61267	87.48783	-46.30450	1769.19714	139.27066	-38.87378	1738.42920	99.10560	-103.50000	1805.28198	89.88772	-122.27817	1847.98291	109.79824	-13.02194	1890.96277	129.78215	-50.55426	1359.63452	741.91901	208.67862	1321.72717	632.24396	187.17937	1447.85938	725.06311	145.15854	1407.18921	622.55542	122.62560	1281.04248	528.12408	169.39334	1361.35046	515.50226	107.94125	1281.34143	533.89697	40.45631	1292.59692	393.24249	87.60674	1242.42151	253.31996	70.15570	1197.25781	341.63800	165.94330	1150.52734	110.96571	103.49547	1181.76599	130.91135	15.20856	1086.46533	110.92706	59.76167	1253.55811	98.48360	61.11162	1218.91895	72.47719	113.94145	1272.48950	46.92032	125.68943	1319.87732	56.99675	26.24754	1365.89917	43.41971	47.37672	
105	1.04000	1469.15894	1500.97986	210.92047	1455.13745	1510.09839	-138.50516	1383.30054	1536.99243	51.93953	1325.81299	1188.20667	-262.19028	1350.47900	937.54688	-297.55707	1477.52490	1169.08667	339.97903	1687.46240	1033.83777	286.93542	1472.53491	1025.85840	178.47760	1487.72583	1024.07092	-96.08145	1307.48987	1101.31580	29.17610	1304.24976	1078.63708	-20.58191	1300.26660	1081.63586	82.01016	1284.02307	1015.92847	33.08789	1500.94482	747.95306	-155.44315	1540.67651	652.30670	-143.72903	1591.67554	785.84827	-90.49719	1625.48315	691.76752	-87.44977	1589.01563	528.99432	-122.11761	1668.77295	556.26105	-70.62762	1602.61902	535.74036	0.46298	1673.01599	412.19290	-54.51239	1701.35229	287.07520	-49.08926	1632.70728	334.68683	-128.72299	1701.72461	118.28005	-94.08569	1728.18799	154.55455	-7.66867	1645.89258	84.98082	-47.25745	1798.27197	144.95662	-37.93430	1770.42786	103.56126	-103.10437	1838.08093	98.54666	-121.36078	1878.55945	120.07681	-11.89780	1920.78015	142.53668	-48.64410	1369.81482	740.62207	208.92972	1330.68591	631.24451	187.34857	1457.43713	723.08612	144.80455	1415.70728	621.12476	122.46559	1288.72485	527.64423	169.55084	1368.69006	514.20325	108.09665	1288.58325	533.61475	40.50563	1297.88550	392.63235	87.74716	1245.54370	253.47740	70.50810	1201.97937	342.43713	166.39777	1151.31763	112.46172	103.86533	1182.56824	132.26433	15.44615	1087.30249	113.20905	60.46648	1253.99023	98.85614	61.45877	1219.25769	73.00599	114.30667	1272.54480	46.88810	125.81223	1319.90820	56.92994	26.33542	1365.91077	43.15791	47.25429	
